<?xml version="1.0" encoding="us-ascii" standalone="no"?><svg xmlns="http://www.w3.org/2000/svg" xmlns:xlink="http://www.w3.org/1999/xlink" contentStyleType="text/css" height="927px" preserveAspectRatio="none" style="width:699px;height:927px;background:#FFFFFF;" version="1.1" viewBox="0 0 699 927" width="699px" zoomAndPan="magnify"><defs/><g><rect fill="#FFFFFF" height="160.8633" style="stroke:#181818;stroke-width:1.0;" width="10" x="232" y="128.1094"/><rect fill="#FFFFFF" height="246.75" style="stroke:#181818;stroke-width:1.0;" width="10" x="232" y="318.2832"/><rect fill="#FFFFFF" height="145.5527" style="stroke:#181818;stroke-width:1.0;" width="10" x="232" y="601.6543"/><rect fill="none" height="180.1289" style="stroke:#000000;stroke-width:1.5;" width="494" x="10" y="377.9043"/><line style="stroke:#181818;stroke-width:0.5;stroke-dasharray:5.0,5.0;" x1="43" x2="43" y1="81.4883" y2="846.4492"/><line style="stroke:#181818;stroke-width:0.5;stroke-dasharray:5.0,5.0;" x1="236.5" x2="236.5" y1="81.4883" y2="846.4492"/><line style="stroke:#181818;stroke-width:0.5;stroke-dasharray:5.0,5.0;" x1="454" x2="454" y1="81.4883" y2="846.4492"/><text fill="#000000" font-family="sans-serif" font-size="14" lengthAdjust="spacing" textLength="40" x="20" y="78.5352">Client</text><ellipse cx="43" cy="13.5" fill="#E2E2F0" rx="8" ry="8" style="stroke:#181818;stroke-width:0.5;"/><path d="M43,21.5 L43,48.5 M30,29.5 L56,29.5 M43,48.5 L30,63.5 M43,48.5 L56,63.5 " fill="none" style="stroke:#181818;stroke-width:0.5;"/><text fill="#000000" font-family="sans-serif" font-size="14" lengthAdjust="spacing" textLength="40" x="20" y="858.9844">Client</text><ellipse cx="43" cy="870.4375" fill="#E2E2F0" rx="8" ry="8" style="stroke:#181818;stroke-width:0.5;"/><path d="M43,878.4375 L43,905.4375 M30,886.4375 L56,886.4375 M43,905.4375 L30,920.4375 M43,905.4375 L56,920.4375 " fill="none" style="stroke:#181818;stroke-width:0.5;"/><rect fill="#E2E2F0" height="30.4883" rx="2.5" ry="2.5" style="stroke:#181818;stroke-width:0.5;" width="111" x="181.5" y="50"/><text fill="#000000" font-family="sans-serif" font-size="14" lengthAdjust="spacing" textLength="97" x="188.5" y="70.5352">FastAPI Server</text><rect fill="#E2E2F0" height="30.4883" rx="2.5" ry="2.5" style="stroke:#181818;stroke-width:0.5;" width="111" x="181.5" y="845.4492"/><text fill="#000000" font-family="sans-serif" font-size="14" lengthAdjust="spacing" textLength="97" x="188.5" y="865.9844">FastAPI Server</text><text fill="#000000" font-family="sans-serif" font-size="14" lengthAdjust="spacing" textLength="74" x="414" y="78.5352">DynamoDB</text><path d="M436,29 C436,19 454,19 454,19 C454,19 472,19 472,29 L472,55 C472,65 454,65 454,65 C454,65 436,65 436,55 L436,29 " fill="#E2E2F0" style="stroke:#181818;stroke-width:1.5;"/><path d="M436,29 C436,39 454,39 454,39 C454,39 472,39 472,29 " fill="none" style="stroke:#181818;stroke-width:1.5;"/><text fill="#000000" font-family="sans-serif" font-size="14" lengthAdjust="spacing" textLength="74" x="414" y="858.9844">DynamoDB</text><path d="M436,871.9375 C436,861.9375 454,861.9375 454,861.9375 C454,861.9375 472,861.9375 472,871.9375 L472,897.9375 C472,907.9375 454,907.9375 454,907.9375 C454,907.9375 436,907.9375 436,897.9375 L436,871.9375 " fill="#E2E2F0" style="stroke:#181818;stroke-width:1.5;"/><path d="M436,871.9375 C436,881.9375 454,881.9375 454,881.9375 C454,881.9375 472,881.9375 472,871.9375 " fill="none" style="stroke:#181818;stroke-width:1.5;"/><rect fill="#FFFFFF" height="160.8633" style="stroke:#181818;stroke-width:1.0;" width="10" x="232" y="128.1094"/><rect fill="#FFFFFF" height="246.75" style="stroke:#181818;stroke-width:1.0;" width="10" x="232" y="318.2832"/><rect fill="#FFFFFF" height="145.5527" style="stroke:#181818;stroke-width:1.0;" width="10" x="232" y="601.6543"/><polygon fill="#181818" points="220,124.1094,230,128.1094,220,132.1094,224,128.1094" style="stroke:#181818;stroke-width:1.0;"/><line style="stroke:#181818;stroke-width:1.0;" x1="43" x2="226" y1="128.1094" y2="128.1094"/><text fill="#000000" font-family="sans-serif" font-size="13" lengthAdjust="spacing" textLength="170" x="50" y="108.0566">POST /api/v1/urls/shorten</text><text fill="#000000" font-family="sans-serif" font-size="13" lengthAdjust="spacing" textLength="70" x="50" y="123.3672">{url: string}</text><line style="stroke:#181818;stroke-width:1.0;" x1="242" x2="284" y1="157.4199" y2="157.4199"/><line style="stroke:#181818;stroke-width:1.0;" x1="284" x2="284" y1="157.4199" y2="170.4199"/><line style="stroke:#181818;stroke-width:1.0;" x1="243" x2="284" y1="170.4199" y2="170.4199"/><polygon fill="#181818" points="253,166.4199,243,170.4199,253,174.4199,249,170.4199" style="stroke:#181818;stroke-width:1.0;"/><text fill="#000000" font-family="sans-serif" font-size="13" lengthAdjust="spacing" textLength="127" x="249" y="152.6777">Generate short_path</text><polygon fill="#181818" points="442,211.041,452,215.041,442,219.041,446,215.041" style="stroke:#181818;stroke-width:1.0;"/><line style="stroke:#181818;stroke-width:1.0;" x1="242" x2="448" y1="215.041" y2="215.041"/><text fill="#000000" font-family="sans-serif" font-size="13" lengthAdjust="spacing" textLength="48" x="249" y="194.9883">PutItem</text><text fill="#000000" font-family="sans-serif" font-size="13" lengthAdjust="spacing" textLength="187" x="249" y="210.2988">(ShortPath, FullUrl, CreatedAt)</text><polygon fill="#181818" points="253,240.3516,243,244.3516,253,248.3516,249,244.3516" style="stroke:#181818;stroke-width:1.0;"/><line style="stroke:#181818;stroke-width:1.0;stroke-dasharray:2.0,2.0;" x1="247" x2="453" y1="244.3516" y2="244.3516"/><text fill="#000000" font-family="sans-serif" font-size="13" lengthAdjust="spacing" textLength="78" x="259" y="239.6094">Item created</text><polygon fill="#181818" points="54,284.9727,44,288.9727,54,292.9727,50,288.9727" style="stroke:#181818;stroke-width:1.0;"/><line style="stroke:#181818;stroke-width:1.0;stroke-dasharray:2.0,2.0;" x1="48" x2="236" y1="288.9727" y2="288.9727"/><text fill="#000000" font-family="sans-serif" font-size="13" lengthAdjust="spacing" textLength="136" x="60" y="268.9199">Return shortened URL</text><text fill="#000000" font-family="sans-serif" font-size="13" lengthAdjust="spacing" textLength="110" x="60" y="284.2305">{short_url: string}</text><polygon fill="#181818" points="220,314.2832,230,318.2832,220,322.2832,224,318.2832" style="stroke:#181818;stroke-width:1.0;"/><line style="stroke:#181818;stroke-width:1.0;" x1="43" x2="226" y1="318.2832" y2="318.2832"/><text fill="#000000" font-family="sans-serif" font-size="13" lengthAdjust="spacing" textLength="111" x="50" y="313.541">GET /{short_path}</text><polygon fill="#181818" points="442,358.9043,452,362.9043,442,366.9043,446,362.9043" style="stroke:#181818;stroke-width:1.0;"/><line style="stroke:#181818;stroke-width:1.0;" x1="242" x2="448" y1="362.9043" y2="362.9043"/><text fill="#000000" font-family="sans-serif" font-size="13" lengthAdjust="spacing" textLength="49" x="249" y="342.8516">GetItem</text><text fill="#000000" font-family="sans-serif" font-size="13" lengthAdjust="spacing" textLength="87" x="249" y="358.1621">(by ShortPath)</text><path d="M10,377.9043 L72,377.9043 L72,385.2148 L62,395.2148 L10,395.2148 L10,377.9043 " fill="#EEEEEE" style="stroke:#000000;stroke-width:1.5;"/><rect fill="none" height="180.1289" style="stroke:#000000;stroke-width:1.5;" width="494" x="10" y="377.9043"/><text fill="#000000" font-family="sans-serif" font-size="13" font-weight="bold" lengthAdjust="spacing" textLength="17" x="25" y="391.4727">alt</text><text fill="#000000" font-family="sans-serif" font-size="11" font-weight="bold" lengthAdjust="spacing" textLength="71" x="87" y="390.5391">[Item Found]</text><polygon fill="#181818" points="253,412.5254,243,416.5254,253,420.5254,249,416.5254" style="stroke:#181818;stroke-width:1.0;"/><line style="stroke:#181818;stroke-width:1.0;stroke-dasharray:2.0,2.0;" x1="247" x2="453" y1="416.5254" y2="416.5254"/><text fill="#000000" font-family="sans-serif" font-size="13" lengthAdjust="spacing" textLength="86" x="259" y="411.7832">Return FullUrl</text><polygon fill="#181818" points="54,457.1465,44,461.1465,54,465.1465,50,461.1465" style="stroke:#181818;stroke-width:1.0;"/><line style="stroke:#181818;stroke-width:1.0;stroke-dasharray:2.0,2.0;" x1="48" x2="231" y1="461.1465" y2="461.1465"/><text fill="#000000" font-family="sans-serif" font-size="13" lengthAdjust="spacing" textLength="116" x="60" y="441.0938">HTTP 302 Redirect</text><text fill="#000000" font-family="sans-serif" font-size="13" lengthAdjust="spacing" textLength="93" x="60" y="456.4043">to original URL</text><line style="stroke:#000000;stroke-width:1.0;stroke-dasharray:2.0,2.0;" x1="10" x2="504" y1="470.1465" y2="470.1465"/><text fill="#000000" font-family="sans-serif" font-size="11" font-weight="bold" lengthAdjust="spacing" textLength="94" x="15" y="480.7813">[Item Not Found]</text><polygon fill="#181818" points="253,501.4121,243,505.4121,253,509.4121,249,505.4121" style="stroke:#181818;stroke-width:1.0;"/><line style="stroke:#181818;stroke-width:1.0;stroke-dasharray:2.0,2.0;" x1="247" x2="453" y1="505.4121" y2="505.4121"/><text fill="#000000" font-family="sans-serif" font-size="13" lengthAdjust="spacing" textLength="91" x="259" y="500.6699">No item found</text><polygon fill="#181818" points="54,546.0332,44,550.0332,54,554.0332,50,550.0332" style="stroke:#181818;stroke-width:1.0;"/><line style="stroke:#181818;stroke-width:1.0;stroke-dasharray:2.0,2.0;" x1="48" x2="231" y1="550.0332" y2="550.0332"/><text fill="#000000" font-family="sans-serif" font-size="13" lengthAdjust="spacing" textLength="116" x="60" y="529.9805">HTTP 302 Redirect</text><text fill="#000000" font-family="sans-serif" font-size="13" lengthAdjust="spacing" textLength="82" x="60" y="545.291">to homepage</text><polygon fill="#181818" points="220,597.6543,230,601.6543,220,605.6543,224,601.6543" style="stroke:#181818;stroke-width:1.0;"/><line style="stroke:#181818;stroke-width:1.0;" x1="43" x2="226" y1="601.6543" y2="601.6543"/><text fill="#000000" font-family="sans-serif" font-size="13" lengthAdjust="spacing" textLength="114" x="50" y="581.6016">GET /api/v1/urls/</text><text fill="#000000" font-family="sans-serif" font-size="13" lengthAdjust="spacing" textLength="133" x="50" y="596.9121">[Basic Auth Required]</text><line style="stroke:#181818;stroke-width:1.0;" x1="242" x2="284" y1="630.9648" y2="630.9648"/><line style="stroke:#181818;stroke-width:1.0;" x1="284" x2="284" y1="630.9648" y2="643.9648"/><line style="stroke:#181818;stroke-width:1.0;" x1="243" x2="284" y1="643.9648" y2="643.9648"/><polygon fill="#181818" points="253,639.9648,243,643.9648,253,647.9648,249,643.9648" style="stroke:#181818;stroke-width:1.0;"/><text fill="#000000" font-family="sans-serif" font-size="13" lengthAdjust="spacing" textLength="193" x="249" y="626.2227">Validate Basic Auth credentials</text><polygon fill="#181818" points="442,684.5859,452,688.5859,442,692.5859,446,688.5859" style="stroke:#181818;stroke-width:1.0;"/><line style="stroke:#181818;stroke-width:1.0;" x1="242" x2="448" y1="688.5859" y2="688.5859"/><text fill="#000000" font-family="sans-serif" font-size="13" lengthAdjust="spacing" textLength="29" x="249" y="668.5332">Scan</text><text fill="#000000" font-family="sans-serif" font-size="13" lengthAdjust="spacing" textLength="94" x="249" y="683.8438">(fetch all URLs)</text><polygon fill="#181818" points="253,713.8965,243,717.8965,253,721.8965,249,717.8965" style="stroke:#181818;stroke-width:1.0;"/><line style="stroke:#181818;stroke-width:1.0;stroke-dasharray:2.0,2.0;" x1="247" x2="453" y1="717.8965" y2="717.8965"/><text fill="#000000" font-family="sans-serif" font-size="13" lengthAdjust="spacing" textLength="100" x="259" y="713.1543">Return URLs list</text><polygon fill="#181818" points="54,743.207,44,747.207,54,751.207,50,747.207" style="stroke:#181818;stroke-width:1.0;"/><line style="stroke:#181818;stroke-width:1.0;stroke-dasharray:2.0,2.0;" x1="48" x2="236" y1="747.207" y2="747.207"/><text fill="#000000" font-family="sans-serif" font-size="13" lengthAdjust="spacing" textLength="164" x="60" y="742.4648">Return URLs array as JSON</text><path d="M459,760.207 L459,831.207 L692,831.207 L692,770.207 L682,760.207 L459,760.207 " fill="#FEFFDD" style="stroke:#181818;stroke-width:0.5;"/><path d="M682,760.207 L682,770.207 L692,770.207 L682,760.207 " fill="#FEFFDD" style="stroke:#181818;stroke-width:0.5;"/><text fill="#000000" font-family="sans-serif" font-size="13" lengthAdjust="spacing" textLength="192" x="465" y="777.7754">DynamoDB Urls Table Schema:</text><text fill="#000000" font-family="sans-serif" font-size="13" lengthAdjust="spacing" textLength="212" x="465" y="793.0859">- ShortPath (String) [Partition Key]</text><text fill="#000000" font-family="sans-serif" font-size="13" lengthAdjust="spacing" textLength="102" x="465" y="808.3965">- FullUrl (String)</text><text fill="#000000" font-family="sans-serif" font-size="13" lengthAdjust="spacing" textLength="123" x="465" y="823.707">- CreatedAt (String)</text><!--SRC=[ZLHDRnf13BtFhx3eeI05qOyRXqg459es8WX8Bo6gpAwN7MMOeJDU8XJblzUpom8ff2gtMJ_RxzdFX4Tjr-Xn1GjC7fVU5JRjE-CylCkoJ8LzE4URFddDJ1OoD86KmeG5rpUQB2j1iKxq6Yr3Ou21U-Dhc9BVa6y01f2dIf5nWO6WSRMrk79NbsMeVYZr7kucDz3tXAoTXO5nJwgg3-qliKGNnhVJ6NHmhJkRZvt2cz09kVF2QcwVvTc5m5xRvKjafpV8L7QEPEeAGxBaOw1C_BL6pkjupKJQ57pDj9hRvZIYnWAwW45Xp9qt5nL3IdlSKdKAjElwCG-I2b4LbaYbeWiJui9Rs76cD0eMvXMLL_nJUgLWDvi9fTfJmcTdC_mgeta-o3e_X8F88TKY5rlOwsmfD5of64GxA93VgSoTajrCIj3VOh_DPcFu_E7JdlNSiWFdzL9RD56F8d5IrMla-9_zHWvqn6LxpF-rozsArhWaHP9sEjGR7JWo2UL4eJdsZYMLqjRPwHuRRsxlBp7e17e5vzBqTo5TquUtdVSJZKvZu2XDZ99A5oqdTRgWQOBYwsP6dEI0fXnPEEUvtJ9A7KOKlUMx4e3UupOUtlVfxUXa95RqWwmePt3PuJQFLYBh3Z33XI4XcDCAkn9j7mm4pMdfuHRSZ-E_GddBFsZxKC9sXjc3oe_xWpfybdL1vF87]--></g></svg>