<svg xmlns="http://www.w3.org/2000/svg" xmlns:xlink="http://www.w3.org/1999/xlink" contentStyleType="text/css" height="802px" preserveAspectRatio="none" style="width:693px;height:802px;background:#FFFFFF;" version="1.1" viewBox="0 0 693 802" width="693px" zoomAndPan="magnify"><defs/><g><rect fill="#FFFFFF" height="159.7969" style="stroke:#181818;stroke-width:1.0;" width="10" x="196.1665" y="127.5625"/><rect fill="#FFFFFF" height="117.6641" style="stroke:#181818;stroke-width:1.0;" width="10" x="196.1665" y="316.4922"/><rect fill="#FFFFFF" height="144.6641" style="stroke:#181818;stroke-width:1.0;" width="10" x="196.1665" y="478.4219"/><line style="stroke:#181818;stroke-width:0.5;stroke-dasharray:5.0,5.0;" x1="28" x2="28" y1="81.2969" y2="721.6172"/><line style="stroke:#181818;stroke-width:0.5;stroke-dasharray:5.0,5.0;" x1="200.2046" x2="200.2046" y1="81.2969" y2="721.6172"/><line style="stroke:#181818;stroke-width:0.5;stroke-dasharray:5.0,5.0;" x1="437.3325" x2="437.3325" y1="81.2969" y2="721.6172"/><text fill="#000000" font-family="sans-serif" font-size="14" lengthAdjust="spacing" textLength="40.5303" x="5" y="77.9951">Client</text><ellipse cx="28.2651" cy="13.5" fill="#E2E2F0" rx="8" ry="8" style="stroke:#181818;stroke-width:0.5;"/><path d="M28.2651,21.5 L28.2651,48.5 M15.2651,29.5 L41.2651,29.5 M28.2651,48.5 L15.2651,63.5 M28.2651,48.5 L41.2651,63.5 " fill="none" style="stroke:#181818;stroke-width:0.5;"/><text fill="#000000" font-family="sans-serif" font-size="14" lengthAdjust="spacing" textLength="40.5303" x="5" y="733.6123">Client</text><ellipse cx="28.2651" cy="745.4141" fill="#E2E2F0" rx="8" ry="8" style="stroke:#181818;stroke-width:0.5;"/><path d="M28.2651,753.4141 L28.2651,780.4141 M15.2651,761.4141 L41.2651,761.4141 M28.2651,780.4141 L15.2651,795.4141 M28.2651,780.4141 L41.2651,795.4141 " fill="none" style="stroke:#181818;stroke-width:0.5;"/><rect fill="#E2E2F0" height="30.2969" rx="2.5" ry="2.5" style="stroke:#181818;stroke-width:0.5;" width="115.9238" x="143.2046" y="50"/><text fill="#000000" font-family="sans-serif" font-size="14" lengthAdjust="spacing" textLength="101.9238" x="150.2046" y="69.9951">FastAPI Server</text><rect fill="#E2E2F0" height="30.2969" rx="2.5" ry="2.5" style="stroke:#181818;stroke-width:0.5;" width="115.9238" x="143.2046" y="720.6172"/><text fill="#000000" font-family="sans-serif" font-size="14" lengthAdjust="spacing" textLength="101.9238" x="150.2046" y="740.6123">FastAPI Server</text><text fill="#000000" font-family="sans-serif" font-size="14" lengthAdjust="spacing" textLength="79.1055" x="395.3325" y="77.9951">DynamoDB</text><path d="M419.8853,29 C419.8853,19 437.8853,19 437.8853,19 C437.8853,19 455.8853,19 455.8853,29 L455.8853,55 C455.8853,65 437.8853,65 437.8853,65 C437.8853,65 419.8853,65 419.8853,55 L419.8853,29 " fill="#E2E2F0" style="stroke:#181818;stroke-width:1.5;"/><path d="M419.8853,29 C419.8853,39 437.8853,39 437.8853,39 C437.8853,39 455.8853,39 455.8853,29 " fill="none" style="stroke:#181818;stroke-width:1.5;"/><text fill="#000000" font-family="sans-serif" font-size="14" lengthAdjust="spacing" textLength="79.1055" x="395.3325" y="733.6123">DynamoDB</text><path d="M419.8853,746.9141 C419.8853,736.9141 437.8853,736.9141 437.8853,736.9141 C437.8853,736.9141 455.8853,736.9141 455.8853,746.9141 L455.8853,772.9141 C455.8853,782.9141 437.8853,782.9141 437.8853,782.9141 C437.8853,782.9141 419.8853,782.9141 419.8853,772.9141 L419.8853,746.9141 " fill="#E2E2F0" style="stroke:#181818;stroke-width:1.5;"/><path d="M419.8853,746.9141 C419.8853,756.9141 437.8853,756.9141 437.8853,756.9141 C437.8853,756.9141 455.8853,756.9141 455.8853,746.9141 " fill="none" style="stroke:#181818;stroke-width:1.5;"/><rect fill="#FFFFFF" height="159.7969" style="stroke:#181818;stroke-width:1.0;" width="10" x="196.1665" y="127.5625"/><rect fill="#FFFFFF" height="117.6641" style="stroke:#181818;stroke-width:1.0;" width="10" x="196.1665" y="316.4922"/><rect fill="#FFFFFF" height="144.6641" style="stroke:#181818;stroke-width:1.0;" width="10" x="196.1665" y="478.4219"/><polygon fill="#181818" points="184.1665,123.5625,194.1665,127.5625,184.1665,131.5625,188.1665,127.5625" style="stroke:#181818;stroke-width:1.0;"/><line style="stroke:#181818;stroke-width:1.0;" x1="28.2651" x2="190.1665" y1="127.5625" y2="127.5625"/><text fill="#000000" font-family="sans-serif" font-size="13" lengthAdjust="spacing" textLength="111.2998" x="35.2651" y="107.3638">POST /api/v1/urls</text><text fill="#000000" font-family="sans-serif" font-size="13" lengthAdjust="spacing" textLength="79.5679" x="35.2651" y="122.4966">{url: string}</text><line style="stroke:#181818;stroke-width:1.0;" x1="206.1665" x2="248.1665" y1="156.6953" y2="156.6953"/><line style="stroke:#181818;stroke-width:1.0;" x1="248.1665" x2="248.1665" y1="156.6953" y2="169.6953"/><line style="stroke:#181818;stroke-width:1.0;" x1="207.1665" x2="248.1665" y1="169.6953" y2="169.6953"/><polygon fill="#181818" points="217.1665,165.6953,207.1665,169.6953,217.1665,173.6953,213.1665,169.6953" style="stroke:#181818;stroke-width:1.0;"/><text fill="#000000" font-family="sans-serif" font-size="13" lengthAdjust="spacing" textLength="134.3101" x="213.1665" y="151.6294">Generate short_path</text><polygon fill="#181818" points="425.8853,209.9609,435.8853,213.9609,425.8853,217.9609,429.8853,213.9609" style="stroke:#181818;stroke-width:1.0;"/><line style="stroke:#181818;stroke-width:1.0;" x1="206.1665" x2="431.8853" y1="213.9609" y2="213.9609"/><text fill="#000000" font-family="sans-serif" font-size="13" lengthAdjust="spacing" textLength="50.7686" x="213.1665" y="193.7622">PutItem</text><text fill="#000000" font-family="sans-serif" font-size="13" lengthAdjust="spacing" textLength="197.8374" x="213.1665" y="208.895">(ShortPath, FullUrl, CreatedAt)</text><polygon fill="#181818" points="217.1665,239.0938,207.1665,243.0938,217.1665,247.0938,213.1665,243.0938" style="stroke:#181818;stroke-width:1.0;"/><line style="stroke:#181818;stroke-width:1.0;stroke-dasharray:2.0,2.0;" x1="211.1665" x2="436.8853" y1="243.0938" y2="243.0938"/><text fill="#000000" font-family="sans-serif" font-size="13" lengthAdjust="spacing" textLength="83.5288" x="223.1665" y="238.0278">Item created</text><polygon fill="#181818" points="39.2651,283.3594,29.2651,287.3594,39.2651,291.3594,35.2651,287.3594" style="stroke:#181818;stroke-width:1.0;"/><line style="stroke:#181818;stroke-width:1.0;stroke-dasharray:2.0,2.0;" x1="33.2651" x2="200.1665" y1="287.3594" y2="287.3594"/><text fill="#000000" font-family="sans-serif" font-size="13" lengthAdjust="spacing" textLength="143.9014" x="45.2651" y="267.1606">Return shortened URL</text><text fill="#000000" font-family="sans-serif" font-size="13" lengthAdjust="spacing" textLength="119.4756" x="45.2651" y="282.2935">{short_url: string}</text><polygon fill="#181818" points="184.1665,312.4922,194.1665,316.4922,184.1665,320.4922,188.1665,316.4922" style="stroke:#181818;stroke-width:1.0;"/><line style="stroke:#181818;stroke-width:1.0;" x1="28.2651" x2="190.1665" y1="316.4922" y2="316.4922"/><text fill="#000000" font-family="sans-serif" font-size="13" lengthAdjust="spacing" textLength="120.7451" x="35.2651" y="311.4263">GET /{short_path}</text><polygon fill="#181818" points="425.8853,356.7578,435.8853,360.7578,425.8853,364.7578,429.8853,360.7578" style="stroke:#181818;stroke-width:1.0;"/><line style="stroke:#181818;stroke-width:1.0;" x1="206.1665" x2="431.8853" y1="360.7578" y2="360.7578"/><text fill="#000000" font-family="sans-serif" font-size="13" lengthAdjust="spacing" textLength="52.7617" x="213.1665" y="340.5591">GetItem</text><text fill="#000000" font-family="sans-serif" font-size="13" lengthAdjust="spacing" textLength="94.25" x="213.1665" y="355.6919">(by ShortPath)</text><polygon fill="#181818" points="217.1665,385.8906,207.1665,389.8906,217.1665,393.8906,213.1665,389.8906" style="stroke:#181818;stroke-width:1.0;"/><line style="stroke:#181818;stroke-width:1.0;stroke-dasharray:2.0,2.0;" x1="211.1665" x2="436.8853" y1="389.8906" y2="389.8906"/><text fill="#000000" font-family="sans-serif" font-size="13" lengthAdjust="spacing" textLength="89.4956" x="223.1665" y="384.8247">Return FullUrl</text><polygon fill="#181818" points="39.2651,430.1563,29.2651,434.1563,39.2651,438.1563,35.2651,434.1563" style="stroke:#181818;stroke-width:1.0;"/><line style="stroke:#181818;stroke-width:1.0;stroke-dasharray:2.0,2.0;" x1="33.2651" x2="200.1665" y1="434.1563" y2="434.1563"/><text fill="#000000" font-family="sans-serif" font-size="13" lengthAdjust="spacing" textLength="121.0562" x="45.2651" y="413.9575">HTTP 307 Redirect</text><text fill="#000000" font-family="sans-serif" font-size="13" lengthAdjust="spacing" textLength="95.6973" x="45.2651" y="429.0903">to original URL</text><polygon fill="#181818" points="184.1665,474.4219,194.1665,478.4219,184.1665,482.4219,188.1665,478.4219" style="stroke:#181818;stroke-width:1.0;"/><line style="stroke:#181818;stroke-width:1.0;" x1="28.2651" x2="190.1665" y1="478.4219" y2="478.4219"/><text fill="#000000" font-family="sans-serif" font-size="13" lengthAdjust="spacing" textLength="98.3887" x="35.2651" y="458.2231">GET /api/v1/list</text><text fill="#000000" font-family="sans-serif" font-size="13" lengthAdjust="spacing" textLength="142.0225" x="35.2651" y="473.356">[Basic Auth Required]</text><line style="stroke:#181818;stroke-width:1.0;" x1="206.1665" x2="248.1665" y1="507.5547" y2="507.5547"/><line style="stroke:#181818;stroke-width:1.0;" x1="248.1665" x2="248.1665" y1="507.5547" y2="520.5547"/><line style="stroke:#181818;stroke-width:1.0;" x1="207.1665" x2="248.1665" y1="520.5547" y2="520.5547"/><polygon fill="#181818" points="217.1665,516.5547,207.1665,520.5547,217.1665,524.5547,213.1665,520.5547" style="stroke:#181818;stroke-width:1.0;"/><text fill="#000000" font-family="sans-serif" font-size="13" lengthAdjust="spacing" textLength="202.7188" x="213.1665" y="502.4888">Validate Basic Auth credentials</text><polygon fill="#181818" points="425.8853,560.8203,435.8853,564.8203,425.8853,568.8203,429.8853,564.8203" style="stroke:#181818;stroke-width:1.0;"/><line style="stroke:#181818;stroke-width:1.0;" x1="206.1665" x2="431.8853" y1="564.8203" y2="564.8203"/><text fill="#000000" font-family="sans-serif" font-size="13" lengthAdjust="spacing" textLength="31.605" x="213.1665" y="544.6216">Scan</text><text fill="#000000" font-family="sans-serif" font-size="13" lengthAdjust="spacing" textLength="99.2202" x="213.1665" y="559.7544">(fetch all URLs)</text><polygon fill="#181818" points="217.1665,589.9531,207.1665,593.9531,217.1665,597.9531,213.1665,593.9531" style="stroke:#181818;stroke-width:1.0;"/><line style="stroke:#181818;stroke-width:1.0;stroke-dasharray:2.0,2.0;" x1="211.1665" x2="436.8853" y1="593.9531" y2="593.9531"/><text fill="#000000" font-family="sans-serif" font-size="13" lengthAdjust="spacing" textLength="103.873" x="223.1665" y="588.8872">Return URLs list</text><polygon fill="#181818" points="39.2651,619.0859,29.2651,623.0859,39.2651,627.0859,35.2651,623.0859" style="stroke:#181818;stroke-width:1.0;"/><line style="stroke:#181818;stroke-width:1.0;stroke-dasharray:2.0,2.0;" x1="33.2651" x2="200.1665" y1="623.0859" y2="623.0859"/><text fill="#000000" font-family="sans-serif" font-size="13" lengthAdjust="spacing" textLength="119.0947" x="45.2651" y="618.02">Return URLs array</text><path d="M442,636.0859 L442,706.0859 L686,706.0859 L686,646.0859 L676,636.0859 L442,636.0859 " fill="#FEFFDD" style="stroke:#181818;stroke-width:0.5;"/><path d="M676,636.0859 L676,646.0859 L686,646.0859 L676,636.0859 " fill="#FEFFDD" style="stroke:#181818;stroke-width:0.5;"/><text fill="#000000" font-family="sans-serif" font-size="13" lengthAdjust="spacing" textLength="203.5122" x="448" y="653.1528">DynamoDB Urls Table Schema:</text><text fill="#000000" font-family="sans-serif" font-size="13" lengthAdjust="spacing" textLength="223.3105" x="448" y="668.2856">- ShortPath (String) [Partition Key]</text><text fill="#000000" font-family="sans-serif" font-size="13" lengthAdjust="spacing" textLength="103.3081" x="448" y="683.4185">- FullUrl (String)</text><text fill="#000000" font-family="sans-serif" font-size="13" lengthAdjust="spacing" textLength="127.6196" x="448" y="698.5513">- CreatedAt (String)</text><!--SRC=[VLDDRnen4BtlhnXn2KX1jEgX4eTAX1GQDL9NG789KJMi1zQAiQaz2q9H_tl7-qKZI4xxyTxClFV63Y_Qxj3Z5bQOlMoyAwmQE-Cy77BDb8GMpz6gWzVCP66D9b2IOCP271jDbXDXiSxq3Yr3PuA1H-aTpCdloNS00yXdef1nXO6WStkqk7MtDoNKV2J95JpCxc7i2Lax2nFZ3adL7_hVOeiXfB_c2nZWJW_sdmU5Ds5fN-KnXC1UsytVg4hlaQcS64KqbLEov2CGSkVvzmuvR_16WRGl-8vfkxJTUMIbGhg6IM7CWpVNbJ9I8-ubJGdqc_wn3hAAKJKMf58_X1bnuMqrMdIeQ5IKLrBUw5Vqna6ToOoKzfJnnKoctoMIrvEjoo6SJ4wfCRawGklpagTQTXt0cQiVYqKANpvzRUKjBJjmNc-qHHE5Nx1phmD7A9HUe9jwnr9AgdVHLxrg8rLB-tI3GMSmAZYNcNyA6QgUtr_v8ngj8l1VcMn8oH0jP_WycNc6Lc9P4sSve2ajX0-2AMr4QUyjl2IWztWyIyAARP2eSWQtFbq2Q5z18W-mm9KX4PRJ5eU2zayRW-wyF3GzU4hZzIilpKywFfUqUcajgVpPdk3JRx8AefP_]--></g></svg>